<svg width="32" height="32" viewBox="0 0 32 32" fill="none" xmlns="http://www.w3.org/2000/svg">
<rect width="32" height="32" rx="16" fill="white"/>
<path d="M6.69001 21H4.80719V14.9503H3.34106V13.3761H4.80719V10.9994H6.69001V13.3761H8.17158V14.9503H6.69001V21ZM8.04751 17.1726C8.04751 14.7959 9.76057 13.1601 12.1218 13.1601C14.4831 13.1601 16.1961 14.7959 16.1961 17.1726C16.1961 19.5493 14.4831 21.1852 12.1218 21.1852C9.76057 21.1852 8.04751 19.5493 8.04751 17.1726ZM9.93033 17.1726C9.93033 18.5616 10.8254 19.503 12.1218 19.503C13.4182 19.503 14.3133 18.5616 14.3133 17.1726C14.3133 15.7837 13.4182 14.8422 12.1218 14.8422C10.8254 14.8422 9.93033 15.7837 9.93033 17.1726ZM18.7997 21H16.9169V13.3761H18.6454L18.7997 14.2712C19.1855 13.6385 19.9572 13.1446 21.0529 13.1446C22.2104 13.1446 23.0129 13.7156 23.4142 14.5953C23.8 13.7156 24.6951 13.1446 25.8526 13.1446C27.7045 13.1446 28.7231 14.2558 28.7231 16.0152V21H26.8557V16.509C26.8557 15.4133 26.2693 14.8422 25.3741 14.8422C24.4636 14.8422 23.7691 15.4287 23.7691 16.6788V21H21.8863V16.4936C21.8863 15.4287 21.3153 14.8577 20.4202 14.8577C19.5251 14.8577 18.7997 15.4441 18.7997 16.6788V21Z" fill="black"/>
</svg>
