<svg width="256" height="256" viewBox="0 0 256 256" fill="none" xmlns="http://www.w3.org/2000/svg">
<rect width="256" height="256" rx="128" fill="white"/>
<path d="M67.292 144.92V160H58.244C51.796 160 46.7693 158.44 43.164 155.32C39.5587 152.131 37.756 146.965 37.756 139.824V116.736H30.684V101.968H37.756V87.824H55.54V101.968H67.188V116.736H55.54V140.032C55.54 141.765 55.956 143.013 56.788 143.776C57.62 144.539 59.0067 144.92 60.948 144.92H67.292ZM98.414 160.832C92.7287 160.832 87.598 159.619 83.022 157.192C78.5153 154.765 74.9447 151.299 72.31 146.792C69.7447 142.285 68.462 137.016 68.462 130.984C68.462 125.021 69.7793 119.787 72.414 115.28C75.0487 110.704 78.654 107.203 83.23 104.776C87.806 102.349 92.9367 101.136 98.622 101.136C104.307 101.136 109.438 102.349 114.014 104.776C118.59 107.203 122.195 110.704 124.83 115.28C127.465 119.787 128.782 125.021 128.782 130.984C128.782 136.947 127.43 142.216 124.726 146.792C122.091 151.299 118.451 154.765 113.806 157.192C109.23 159.619 104.099 160.832 98.414 160.832ZM98.414 145.44C101.811 145.44 104.689 144.192 107.046 141.696C109.473 139.2 110.686 135.629 110.686 130.984C110.686 126.339 109.507 122.768 107.15 120.272C104.862 117.776 102.019 116.528 98.622 116.528C95.1553 116.528 92.278 117.776 89.99 120.272C87.702 122.699 86.558 126.269 86.558 130.984C86.558 135.629 87.6673 139.2 89.886 141.696C92.174 144.192 95.0167 145.44 98.414 145.44ZM207.065 101.344C214.275 101.344 219.995 103.528 224.225 107.896C228.523 112.264 230.673 118.331 230.673 126.096V160H212.993V128.488C212.993 124.744 211.987 121.867 209.977 119.856C208.035 117.776 205.331 116.736 201.865 116.736C198.398 116.736 195.659 117.776 193.649 119.856C191.707 121.867 190.737 124.744 190.737 128.488V160H173.057V128.488C173.057 124.744 172.051 121.867 170.041 119.856C168.099 117.776 165.395 116.736 161.929 116.736C158.462 116.736 155.723 117.776 153.713 119.856C151.771 121.867 150.801 124.744 150.801 128.488V160H133.017V101.968H150.801V109.248C152.603 106.821 154.961 104.915 157.873 103.528C160.785 102.072 164.078 101.344 167.753 101.344C172.121 101.344 176.003 102.28 179.401 104.152C182.867 106.024 185.571 108.693 187.513 112.16C189.523 108.971 192.262 106.371 195.729 104.36C199.195 102.349 202.974 101.344 207.065 101.344Z" fill="black"/>
</svg>
